<svg width="94" height="29" viewBox="0 0 94 29" fill="none" xmlns="http://www.w3.org/2000/svg">
<path d="M15.2943 10.1909L11.1107 10.4483C11.0392 10.0908 10.8854 9.76895 10.6494 9.48289C10.4134 9.18968 10.1024 8.95725 9.71618 8.78562C9.33715 8.60683 8.88303 8.51744 8.35382 8.51744C7.64582 8.51744 7.04867 8.66762 6.56237 8.96798C6.07606 9.26119 5.83291 9.65452 5.83291 10.148C5.83291 10.5413 5.99025 10.8739 6.30491 11.1456C6.61958 11.4174 7.15952 11.6355 7.92473 11.8L10.9069 12.4007C12.5088 12.7297 13.7031 13.2589 14.4898 13.9883C15.2765 14.7178 15.6698 15.6761 15.6698 16.8632C15.6698 17.9431 15.3516 18.8907 14.7151 19.706C14.0857 20.5212 13.2204 21.1577 12.1191 21.6154C11.0249 22.066 9.76266 22.2912 8.33236 22.2912C6.15115 22.2912 4.41334 21.8371 3.11892 20.9289C1.83165 20.0135 1.07717 18.7691 0.855469 17.1958L5.35019 16.9598C5.48606 17.6249 5.81503 18.1326 6.33709 18.483C6.85915 18.8263 7.52782 18.998 8.34309 18.998C9.14406 18.998 9.78769 18.8442 10.274 18.5367C10.7674 18.222 11.0177 17.818 11.0249 17.3245C11.0177 16.9097 10.8425 16.57 10.4993 16.3054C10.156 16.0337 9.62678 15.8263 8.91163 15.6832L6.05818 15.1147C4.4491 14.7929 3.25122 14.2351 2.46456 13.4412C1.68504 12.6474 1.29529 11.6355 1.29529 10.4054C1.29529 9.34701 1.58135 8.43519 2.15347 7.66998C2.73274 6.90477 3.54443 6.31477 4.58855 5.89999C5.63982 5.4852 6.86988 5.27781 8.27873 5.27781C10.3598 5.27781 11.9975 5.71762 13.1918 6.59726C14.3933 7.47689 15.0941 8.67477 15.2943 10.1909Z" fill="#475569"/>
<path d="M21.6068 12.4436V21.9694H17.037V0H21.4781V8.39944H21.6712C22.043 7.42683 22.6438 6.6652 23.4733 6.11453C24.3029 5.55672 25.3435 5.27781 26.595 5.27781C27.7392 5.27781 28.7368 5.52811 29.5879 6.02871C30.446 6.52217 31.1111 7.23374 31.5831 8.16344C32.0623 9.08598 32.2983 10.1909 32.2911 11.4782V21.9694H27.7213V12.2934C27.7285 11.2779 27.471 10.4877 26.949 9.92271C26.4341 9.35774 25.7118 9.07525 24.7821 9.07525C24.1599 9.07525 23.6092 9.20755 23.1301 9.47216C22.6581 9.73677 22.2862 10.1229 22.0144 10.6307C21.7498 11.1313 21.6139 11.7356 21.6068 12.4436Z" fill="#475569"/>
<path d="M41.8218 22.2912C40.1555 22.2912 38.7144 21.9372 37.4987 21.2292C36.2901 20.5141 35.3568 19.52 34.6989 18.247C34.0409 16.9669 33.712 15.483 33.712 13.7952C33.712 12.0932 34.0409 10.6057 34.6989 9.33271C35.3568 8.05259 36.2901 7.05853 37.4987 6.35053C38.7144 5.63538 40.1555 5.27781 41.8218 5.27781C43.4881 5.27781 44.9255 5.63538 46.1341 6.35053C47.3499 7.05853 48.2867 8.05259 48.9446 9.33271C49.6026 10.6057 49.9316 12.0932 49.9316 13.7952C49.9316 15.483 49.6026 16.9669 48.9446 18.247C48.2867 19.52 47.3499 20.5141 46.1341 21.2292C44.9255 21.9372 43.4881 22.2912 41.8218 22.2912ZM41.8432 18.7512C42.6013 18.7512 43.2342 18.5367 43.7419 18.1076C44.2497 17.6714 44.6323 17.0778 44.8898 16.3269C45.1544 15.576 45.2867 14.7214 45.2867 13.7631C45.2867 12.8048 45.1544 11.9502 44.8898 11.1992C44.6323 10.4483 44.2497 9.85476 43.7419 9.41852C43.2342 8.98228 42.6013 8.76416 41.8432 8.76416C41.078 8.76416 40.4344 8.98228 39.9123 9.41852C39.3974 9.85476 39.0076 10.4483 38.743 11.1992C38.4856 11.9502 38.3569 12.8048 38.3569 13.7631C38.3569 14.7214 38.4856 15.576 38.743 16.3269C39.0076 17.0778 39.3974 17.6714 39.9123 18.1076C40.4344 18.5367 41.078 18.7512 41.8432 18.7512Z" fill="#475569"/>
<path d="M58.8373 22.2912C57.171 22.2912 55.73 21.9372 54.5142 21.2292C53.3056 20.5141 52.3724 19.52 51.7144 18.247C51.0565 16.9669 50.7275 15.483 50.7275 13.7952C50.7275 12.0932 51.0565 10.6057 51.7144 9.33271C52.3724 8.05259 53.3056 7.05853 54.5142 6.35053C55.73 5.63538 57.171 5.27781 58.8373 5.27781C60.5036 5.27781 61.9411 5.63538 63.1497 6.35053C64.3654 7.05853 65.3023 8.05259 65.9602 9.33271C66.6181 10.6057 66.9471 12.0932 66.9471 13.7952C66.9471 15.483 66.6181 16.9669 65.9602 18.247C65.3023 19.52 64.3654 20.5141 63.1497 21.2292C61.9411 21.9372 60.5036 22.2912 58.8373 22.2912ZM58.8588 18.7512C59.6168 18.7512 60.2497 18.5367 60.7575 18.1076C61.2653 17.6714 61.6479 17.0778 61.9053 16.3269C62.1699 15.576 62.3022 14.7214 62.3022 13.7631C62.3022 12.8048 62.1699 11.9502 61.9053 11.1992C61.6479 10.4483 61.2653 9.85476 60.7575 9.41852C60.2497 8.98228 59.6168 8.76416 58.8588 8.76416C58.0936 8.76416 57.4499 8.98228 56.9279 9.41852C56.413 9.85476 56.0232 10.4483 55.7586 11.1992C55.5011 11.9502 55.3724 12.8048 55.3724 13.7631C55.3724 14.7214 55.5011 15.576 55.7586 16.3269C56.0232 17.0778 56.413 17.6714 56.9279 18.1076C57.4499 18.5367 58.0936 18.7512 58.8588 18.7512Z" fill="#475569"/>
<path d="M77.1723 5.49235V8.92507H67.2496V5.49235H77.1723ZM69.5023 1.54472H74.0722V16.9061C74.0722 17.3281 74.1365 17.6571 74.2652 17.8931C74.394 18.1219 74.5728 18.2828 74.8016 18.3758C75.0376 18.4687 75.3094 18.5152 75.6169 18.5152C75.8314 18.5152 76.046 18.4974 76.2605 18.4616C76.4751 18.4187 76.6395 18.3865 76.754 18.365L77.4727 21.7656C77.2438 21.8371 76.922 21.9193 76.5072 22.0123C76.0925 22.1124 75.5883 22.1732 74.9947 22.1947C73.8934 22.2376 72.9279 22.091 72.0983 21.7549C71.2759 21.4187 70.6359 20.8967 70.1782 20.1887C69.7205 19.4807 69.4952 18.5867 69.5023 17.5069V1.54472Z" fill="#475569"/>
<path d="M81.46 28.1483C80.8807 28.1483 80.3372 28.1018 79.8295 28.0088C79.3289 27.923 78.9141 27.8122 78.5851 27.6763L79.6149 24.265C80.1513 24.4295 80.634 24.5189 81.0631 24.5332C81.4993 24.5475 81.8748 24.4474 82.1895 24.2329C82.5113 24.0183 82.7723 23.6536 82.9726 23.1387L83.2407 22.4414L77.33 5.49235H82.1358L85.5471 17.5927H85.7187L89.1622 5.49235H94.0002L87.596 23.7501C87.2885 24.6369 86.8701 25.4093 86.3409 26.0672C85.8189 26.7323 85.1573 27.2436 84.3564 27.6012C83.5554 27.9659 82.59 28.1483 81.46 28.1483Z" fill="#475569"/>
</svg>
